<svg xmlns="http://www.w3.org/2000/svg" version="1.1" xmlns:xlink="http://www.w3.org/1999/xlink" xmlns:svgjs="http://svgjs.dev/svgjs" width="865" height="729"><svg width="865" height="729" viewBox="0 0 865 729" fill="none" xmlns="http://www.w3.org/2000/svg">
<path d="M289.428 679.395V52.0714H596.041C674.936 52.0714 734.107 67.0077 773.554 96.8803C813.599 126.753 833.621 166.185 833.621 215.176C833.621 248.035 825.553 276.713 809.415 301.209C793.278 325.107 771.163 343.628 743.072 356.772C714.981 369.915 682.706 376.487 646.247 376.487L663.281 339.744C702.728 339.744 737.693 346.316 768.175 359.46C798.657 372.007 822.265 390.826 839 415.919C856.333 441.012 865 471.781 865 508.225C865 561.996 843.782 604.116 801.346 634.586C758.911 664.459 696.452 679.395 613.972 679.395H433.769H289.428ZM433.769 570.062H603.213C640.868 570.062 669.258 564.087 688.384 552.138C708.107 539.592 717.969 519.876 717.969 492.99C717.969 466.703 708.107 447.285 688.384 434.739C669.258 421.595 640.868 415.023 603.213 415.023H112.409V309.274H578.111C613.374 309.274 640.27 303.3 658.798 291.351C677.924 278.804 687.487 259.984 687.487 234.891C687.487 210.396 677.924 192.174 658.798 180.225C640.27 167.678 613.374 161.405 578.111 161.405H433.769V570.062Z" fill="#2743CC"></path>
<mask id="SvgjsMask1001" style="mask-type:alpha" maskUnits="userSpaceOnUse" x="0" y="0" width="595" height="729">
<path d="M0 0H466.085L594.944 364.5L466.085 729H0V0Z" fill="#D9D9D9"></path>
</mask>
<g mask="url(#mask0_16_16)">
<path d="M289.428 679.395V52.0714H596.041C674.936 52.0714 734.107 67.0077 773.554 96.8803C813.599 126.753 833.621 166.185 833.621 215.176C833.621 248.035 825.553 276.713 809.415 301.209C793.278 325.107 771.163 343.628 743.072 356.772C714.981 369.915 682.706 376.487 646.247 376.487L663.281 339.744C702.728 339.744 737.693 346.316 768.175 359.46C798.657 372.007 822.265 390.826 839 415.919C856.333 441.012 865 471.781 865 508.225C865 561.996 843.782 604.116 801.346 634.586C758.911 664.459 696.452 679.395 613.972 679.395H433.769H289.428ZM433.769 570.062H603.213C640.868 570.062 669.258 564.087 688.384 552.138C708.107 539.592 717.969 519.876 717.969 492.99C717.969 466.703 708.107 447.285 688.384 434.739C669.258 421.595 640.868 415.023 603.213 415.023H112.409V309.274H578.111C613.374 309.274 640.27 303.3 658.798 291.351C677.924 278.804 687.487 259.984 687.487 234.891C687.487 210.396 677.924 192.174 658.798 180.225C640.27 167.678 613.374 161.405 578.111 161.405H433.769V570.062Z" fill="#2F4DE1"></path>
</g>
</svg><style>@media (prefers-color-scheme: light) { :root { filter: none; } }
@media (prefers-color-scheme: dark) { :root { filter: none; } }
</style></svg>